<?xml version="1.0" encoding="UTF-8"?>
<svg version="1.1" viewBox="0 0 1408 1220" width="1280" height="1280" xmlns="http://www.w3.org/2000/svg">
<path transform="translate(0)" d="m0 0h1408v1220h-1408z" fill="#273033"/>
<path transform="translate(611,110)" d="m0 0h12l20 3 15 4 19 8 22 13 16 12 10 9 25 25 13 17 18 27 13 24 9 19 7 3 49 8 34 6 9 10 14 19 12 15 10 13 12 16 10 13 14 18 20 26 26 34 7 9 4 5v2h2l8 11 10 13 9 12 13 17 10 13 9 12 21 27 11 14 15 20 13 17 11 14 15 20 13 17 12 15 12 16 10 13 11 14 12 16 7 9v2h2l7 10 12 15 5 7v3l-3 1h-929l-2-1 1-18 14-118 4-31 1-1 65-1 57-3 44-4 46-6 54-10 48-10 44-10 42-11h9l6 12 12 19 9 16 6 6 4-1 12-14 9-9 7-8 11-12 12-13 16-17 1-2h2l2-4 9-9 7-8 11-12 9-10 10-11 9-11 11-12 6-8 6-5h2v-2l-17 3-42 3-69 4-89 4-32 1 8 14 11 19 10 16 4 5-1 3-43 14-30 8-42 10-45 9-43 7-47 6-57 4-28 1h-18l-38-2-31-3-20-3-15-4-21-9-18-10-13-11-7-8-7-11-7-16-1-4v-21l4-15 8-16 7-9 18-18 15-11 17-10 15-8 25-11 24-9 22-7h4l4 30 5 45 2 5 2-9 4-52 6-49 7-59 9-69 1-1 12 1 42 7 83 13 47 7 68 11 52 9 15 2-4-13-9-25-7-16-8-16-8-14-10-14-8-10-8-9-13-9-13-6-7-2h-14l-13 4-9 6-8 7-9 12-3 5-4 11-3 9-5 24-1 14-1 2-11-1-41-6-5-2 1-6 9-25 8-18 10-16 11-12 11-9 14-8 11-5 16-4z" fill="#007092"/>
<path transform="translate(1046,497)" d="m0 0 4 1 8 9 4 7 9 9 8 10 11 14 16 21 10 13 11 14 20 26 13 16 9 12 20 26 9 11 12 16 10 13 11 14 16 21 10 13 5 5 7 8 8 11 2 7h-231v-1l6-1 3-2 12-1 11-2 26-4-3-5-2-5-8-5-6-5-4-1-2-11-3-4 1-12-3-8 2-7-2-9v-25l2-1v-22l-1-4v-13l-1-5-1-16-1-4 1-1v-6l-2-5 2-5-1-11 1-4v-6l-3-1v-2l1-6-2-10v-3l1-6 1 2 2 1v2l2-1-3-6-1-8-8-16-8-14-8-10-3-5z" fill="#00AED3"/>
<path transform="translate(662,931)" d="m0 0h11l14 1 6 3 5 10 14 35 16 41 14 36 9 23v2l-9 1h-36l-4-2-5-10-5-15h-46l-9 24-9 3h-33l-7-1-1-5 22-56 19-49 8-20 7-16 3-3 3-1z" fill="#00AED2"/>
<path transform="translate(445,929)" d="m0 0h18l22 5 13 7 10 9 6 8 4 7v4l-15 7-15 5-4 1h-11l-2-2-2-7-9-4h-14l-9 6-1 2 6 5 11 4 31 8 15 6 10 7 5 6 6 12 1 7v11l-4 13-8 11-10 8-13 6-19 4-2 1h-19l-19-4-15-6-10-7-8-8-8-16 1-3 15-6 19-6h12l4 5v2l4 2 5 4 4 2h15l7-3 2-2v-8l-9-3-31-7-18-6-11-6-8-8-5-10-2-7v-16l3-10 6-10 10-9 10-5 13-4z" fill="#00ADD2"/>
<path transform="translate(1e3 932)" d="m0 0h100l11 2v30l-7 2-19 1h-44l-1 6-1 16h36l17 1 6 2v30l-9 2h-49v24h49l16 1 6 1v31l-15 2h-99l-3-1-1-4 1-144z" fill="#00ACD1"/>
<path transform="translate(823,932)" d="m0 0h30l10 2 1 3v111h39l20 1 7 1v31l-12 2h-96l-4-1v-149z" fill="#00ABD0"/>
<path transform="translate(208,570)" d="m0 0 5 1 6 5 6 7 14 10 14 8 25 10 27 8 24 5 3 2-1 10-2 11-2 18-1 1-10-1-18-6-21-10-16-10-13-9-14-12-10-12-8-13-8-19z" fill="#007092"/>
<path transform="translate(914,471)" d="m0 0h10l-4 3-24 8-36 10-27 8-50 14-11 3h-6l-14-22-6-8v-2l82-6 68-6z" fill="#BAE0E8"/>
<path transform="translate(527,263)" d="m0 0h15l12 6 9 9 4 8v9l-6 9-6 5-9 3h-13l-12-6-9-8-4-11 1-10 3-6 5-4z" fill="#283033"/>
<path transform="translate(869,795)" d="m0 0h400l4 2-1 3-11 1-5-1-4 1-9-1-18 2v-2l-5 1h-4-6l-2-1-6 1-9 1-2-1-3 1-8-2-7 2-8-1h-39l-9-1-11 1h-26l-6 1v-2h-2l-1 2h-18-4l-3-1-5 1-11-1h-125l-7-1-1 1h-18l-5-1h-15l-5-2-6-1v-1z" fill="#232628"/>
<path transform="translate(775,298)" d="m0 0h13l11 4 10 9 4 7 1 10-4 8-7 6-9 3h-12l-10-4-8-6-6-10-1-10 3-7 5-5 7-4z" fill="#282F32"/>
<path transform="translate(960,457)" d="m0 0h5v2l-6 5-5 3-4 5-3 1-2-5-10-1-13 3-27 3-8 2-59 5-44 2-24 1-3-2v-3h2l1-2h6l4-2 10 1 9-1h15l8-2v2l6-1v-2l9-1 5-1h10v-2l12-2 52-3 42-3z" fill="#21262A"/>
<path transform="translate(683,933)" d="m0 0 9 1 4 6 16 40 16 41 14 36 9 23v2l-8-1-9-19-14-37-19-49-10-26-4-10z" fill="#BAE0E8"/>
<path transform="translate(441,967)" d="m0 0h7l-12 9 4 5 9 4 35 9 15 6 10 7 5 6 6 12 1 7v11l-4 13-8 11-10 8-13 6-19 4h-6v-1l21-6 11-6 10-9 6-11 2-8v-14l-3-11-6-9-8-7-16-7-39-10-8-4-4-4 2-5 5-4z" fill="#BAE0E8"/>
<path transform="translate(853,933)" d="m0 0 10 1 1 5-1 110 2 1h-10l-1-1z" fill="#BAE0E8"/>
<path transform="translate(1100,1020)" d="m0 0 3 3-4 3-4 1-1 2-7 1h-8l-6 4-9 2-1 2 13 2 7 1 12 2 3 3 6 1v1h-62v-24l49-1 9-1z" fill="#2B2829"/>
<path transform="translate(1042,966)" d="m0 0h66l-1 5-6 2h-12l-13 1-7 2-9 2 1 5 6 3v2h16v1h-42v-16z" fill="#2A292B"/>
<path transform="translate(420,1018)" d="m0 0 8 1 15 4 25 6 6 3 1 2v6l-6 5-4 1h-15l-8-5-5-4-1-4-3-1-1-2-5-1-8-8z" fill="#2B2829"/>
<path transform="translate(995,937)" d="m0 0h1v141h-2l-2-6-2-5-1-13v-35l-2-4 2-2v-13l1-32v-21l4-6z" fill="#2A2728"/>
<path transform="translate(446,968)" d="m0 0h14l9 4 2 2 2 7h11l11-1-1 5-6 3-3 3h-2v2l-10-1-27-7-7-4-4-5 7-6z" fill="#292B2E"/>
<path transform="translate(1026,925)" d="m0 0h64l8 2v3l11 1v1l-107 1-6 1v-2l6-2 10-2 5-2z" fill="#232628"/>
<path transform="translate(864,994)" d="m0 0h1l1 18 1 2v18 3l1 4 7-1 3 2 8 1 8-1 4 2 1 1 2-1v2h10v2l6-3h3v2l6 1v1l6 1 1 16 2-1v2h2v6h-2v2h-2l-1 5h-1l-1-27-7-1-20-1-39-1z" fill="#212629"/>
<path transform="translate(1114,1080)" d="m0 0 1 4h-5l-4 2h-2v-2l-12 2-4 2-8 1h-59l-5-1h-3l-4 1-8-2-3-4 3-1h97z" fill="#232527"/>
<path transform="translate(461,930)" d="m0 0 12 1 14 4 11 6 10 9 6 8 4 7v4l-15 7-15 5h-5l4-3 21-9 1-3-6-11-7-8-10-7-8-4-9-3-8-2z" fill="#BAE0E8"/>
<path transform="translate(821,1083)" d="m0 0h98l-3 3h-6-4l-2-1v3l-16 1-50-1-2-4h-2l-1 2-5 2-2-2v-1l-5-1z" fill="#2B2728"/>
<path transform="translate(649,932)" d="m0 0h8v1l-10 2-7 14-3 11h-2l-1 7-1 3h-2l-1 6-10 24-16 41-4 15-5 12-1 2h-2l-3 11 39 1v1h-33l-7-1-1-5 22-56 19-49 8-20 7-16 3-3z" fill="#007092"/>
<path transform="translate(444,1030)" d="m0 0 12 2 8 4 3 3 4 1 2-8 2 2v6l-6 5-4 1h-15l-8-5-5-4-1-4-3-1v-1z" fill="#263236"/>
<path transform="translate(859,493)" d="m0 0h2l-1 4-24 8-7 2-22 5-7 3-5 1-5 2-6-1-1 2v-3l-2-1 10-3h3v-2l42-12 12-2z" fill="#202A2F"/>
<path transform="translate(627,971)" d="m0 0 1 4-22 56-3 8h-2l1-7 1-1v-7l4-12 4-9 5-16 4-10 4-5z" fill="#2A282A"/>
<path transform="translate(650,1055)" d="m0 0h42l3 6v3l-8-1-2-1h-32l-7 1-1-3h2l1-4z" fill="#232427"/>
<path transform="translate(489,1079)" d="m0 0h8v2l-4 2-7 1-1 2-10 3h-3v2l-16 1-12-1-10-4v-3l12 1h19l13-3z" fill="#22292D"/>
<path transform="translate(907,1049)" d="m0 0h16l7 1v31l-9 1-1-2v-28l-13-2z" fill="#BAE0E8"/>
<path transform="translate(663,987)" d="m0 0 4 1 1 2v8l-7 18v5l-3 1h-7l-1-3 9-24z" fill="#BAE0E8"/>
<path transform="translate(1101,1049)" d="m0 0 12 1v31h-10v-31z" fill="#BAE0E8"/>
<path transform="translate(1100,933)" d="m0 0h10l3 1v30l-1 1h-9v-30z" fill="#BAE0E8"/>
<path transform="translate(640,1053)" d="m0 0h6v3l-9 24-6 2h-6l10-24z" fill="#BAE0E8"/>
<path transform="translate(1090,991)" d="m0 0h9l1 1v30h-9l-1-4z" fill="#BAE0E8"/>
<path transform="translate(1033,1022)" d="m0 0 9 1v26l-1 1h-8l-1-1v-26z" fill="#BAE0E8"/>
<path transform="translate(864,994)" d="m0 0h1l1 18 1 2v18 3l1 4 7-1 3 2 8 1 8-1 4 2v1l-23 2-2-1-1 3-8 1z" fill="#2B2829"/>
<path transform="translate(1033,965)" d="m0 0h7l2 1-1 25h-7l-2-1v-24z" fill="#BAE0E8"/>
<path transform="translate(668,999)" d="m0 0 4 4 6 14-1 3h-15l-2-1 1-5 5-13z" fill="#292A2C"/>
<path transform="translate(960,457)" d="m0 0h5v2l-6 5-5 3-4 5-3 1-2-5-9-1v-3l3-2-1-2z" fill="#2B2829"/>
<path transform="translate(404,944)" d="m0 0 2 1-6 7-5 10-1 16 1 12 4 10 5 6 10 7-2 1-9-6-7-8-4-8-2-7v-16l3-10 6-10z" fill="#007092"/>
<path transform="translate(1019,1084)" d="m0 0h40l-2 2 5 1 2 2h-43l-5-1 1-3z" fill="#2B2728"/>
<path transform="translate(427,1031)" d="m0 0h6l4 4v2l4 2 5 4 8 3 5 1v1h-13l-12-6-7-7z" fill="#BAE0E8"/>
<path transform="translate(874,1083)" d="m0 0h45l-3 3h-6-4l-2-1v3l-16 1v-2h-4v-2l-10-1z" fill="#232427"/>
<path transform="translate(402,1036)" d="m0 0 3 1-15 6 1 5 6 7 3 8 4 4v2l5 2 8 5 2 2-5-1-11-7-9-9-8-16 1-3z" fill="#007092"/>
<path transform="translate(1044,966)" d="m0 0h64l-1 2h-54l-1 4-3 3-4 1-2-9z" fill="#222528"/>
<path transform="translate(628,1082)" d="m0 0h10v2l-5 2-2 1v-2l-9-1-1 2h-5l-1 3-6-1v-2h-4l-5 1-4 1-3-1v-4z" fill="#232527"/>
<path transform="translate(434,1084)" d="m0 0 12 1 15 1-2 3 4 2-5 1-14-1-10-4z" fill="#2B282A"/>
<path transform="translate(769,474)" d="m0 0 11 1 8-1-3 3-3 1h-6l-4 1h-2v2l3 1-4 1h-9l-3-2v-3h2l1-2h6z" fill="#2B2829"/>
<path transform="translate(664,926)" d="m0 0 16 1 1 2 3 2-22 1h-14l4-3z" fill="#2B2829"/>
<path transform="translate(420,1018)" d="m0 0 8 1 6 2 2 9 2 1h-5l-6-2-8-8z" fill="#2B292A"/>
<path transform="translate(1e3 1082)" d="m0 0 59 1v1l-10 1h-30l-6 3-4 1-8-2-3-4z" fill="#222427"/>
<path transform="translate(705,1083)" d="m0 0h36v1l-9 1-4 1v2l-4 1h-9v-2l3-2h-7l-5 1z" fill="#2B2829"/>
<path transform="translate(434,1022)" d="m0 0 9 1 7 2v4l-6 2h-6l-2-1-2-5z" fill="#222427"/>
<path transform="translate(459,923)" d="m0 0 12 1 9 3 5 5v1h-7l-3-3-10-3-2-1v2h-2v-2l-3-1z" fill="#2B292A"/>
<path transform="translate(1026,925)" d="m0 0h15l-2 2-11 2-1 1-22 1 3-2 9-3z" fill="#2C2829"/>
<path transform="translate(457,925)" d="m0 0 4 1v2h2v-2l6 1 10 3-3 2-13-2-21-1v-1z" fill="#222427"/>
<path transform="translate(448,216)" d="m0 0h8l2 1h10l3-1 1 4 11 1 1 2h-9l-23-4-4-2z" fill="#232629"/>
<path transform="translate(668,999)" d="m0 0 4 4 2 6-8 3-3-1 3-10z" fill="#263236"/>
<path transform="translate(1100,999)" d="m0 0 5 5v11h-2l-3 4-1-18z" fill="#272E32"/>
<path transform="translate(821,1083)" d="m0 0h53v1h-40l-1 2-5 2-2-2v-1l-5-1z" fill="#272A2C"/>
<path transform="translate(1114,1052)" d="m0 0 2 2 1 6 2 4h-2v3h2v6h-4l-1 2z" fill="#222427"/>
<path transform="translate(931,1051)" d="m0 0h1l1 13 2-1v2h2v6h-2v2h-2l-1 5h-1z" fill="#222427"/>
<path transform="translate(1072,925)" d="m0 0h18l8 2-1 4-9-2-12-1-4-2z" fill="#2C2829"/>
<path transform="translate(931,1080)" d="m0 0 2 4-9 3h-4l-2-5z" fill="#1F2C32"/>
<path transform="translate(442,970)" d="m0 0m-1 1 5 1 2 8 3 1-6 1-4-2-1-4z" fill="#222427"/>
<path transform="translate(466,970)" d="m0 0 5 2 7 7 6 2v1h-11l-2-2-2-7z" fill="#007092"/>
<path transform="translate(837,928)" d="m0 0 6 1 10 2v1h-29v-1z" fill="#222427"/>
<path transform="translate(1100,1020)" d="m0 0 3 3-4 3-7 1v-2h-17v-1l16-1 9-1z" fill="#222629"/>
<path transform="translate(506,974)" d="m0 0 2 1-4 1-1 5-9 1-2-1-4-1z" fill="#203238"/>
<path transform="translate(468,972)" d="m0 0 3 2 2 7 10 1v1l-7 1-9-2-2-4 2-4z" fill="#272F32"/>
<path transform="translate(705,1083)" d="m0 0h36v1l-30 1-5 1z" fill="#242427"/>
<path transform="translate(1113,932)" d="m0 0h2l1 11 1 3v9l-3 2z" fill="#222427"/>
<path transform="translate(463,926)" d="m0 0 6 1 10 3-3 2-13-2-1-2z" fill="#1D333B"/>
<path transform="translate(452,974)" d="m0 0 7 1v4l-4 1-5-2z" fill="#283033"/>
<path transform="translate(439,972)" d="m0 0h2v6l1 2h3l1 4-6-2-5-6z" fill="#23363D"/>
<path transform="translate(1e3 1084)" d="m0 0h11l2 4-4 1-8-2z" fill="#292728"/>
<path transform="translate(1083,1084)" d="m0 0h17v1l-8 1-4 2-5 1-1-2h2z" fill="#2B2829"/>
<path transform="translate(1e3 930)" d="m0 0h24v1l-23 2-6 1v-2z" fill="#242528"/>
<path transform="translate(384,413)" d="m0 0h5v3h-2l1 6-2 2-2-2z" fill="#2C2829"/>
<path transform="translate(606,1084)" d="m0 0h11l-1 5-7-1v-2l-3-1z" fill="#2C2829"/>
<path transform="translate(1104,1047)" d="m0 0 10 1-1 3-6-1-16-1v-1z" fill="#223035"/>
<path transform="translate(1114,1080)" d="m0 0 1 4h-5l-4 2h-2l1-4z" fill="#20292E"/>
<path transform="translate(593,1083)" d="m0 0 12 1-1 2-8 2-3-1z" fill="#2B2728"/>
<path transform="translate(406,1011)" d="m0 0 6 2-2 5-5-2z" fill="#222427"/>
<path transform="translate(690,1057)" d="m0 0h2l1 4h2v3l-8-1v-3h3z" fill="#2B2829"/>
<path transform="translate(960,457)" d="m0 0h5v2l-6 5-2-1 2-4h-5v-1z" fill="#283033"/>
<path transform="translate(837,928)" d="m0 0 6 1 2 2h-16l3-2z" fill="#2C2829"/>
<path transform="translate(880,1084)" d="m0 0h6l-2 1v2l4 1h-11l1-2h2z" fill="#2C2829"/>
<path transform="translate(665,1014)" d="m0 0 3 1v2l5 1v1h-10z" fill="#222427"/>
<path transform="translate(668,993)" d="m0 0 2 1 3 7-1 4-3-5h-2z" fill="#007092"/>
</svg>
